solid TAG-MAYA
facet normal 0.0 0.0 -1.0
  outer loop
    vertex 0.9905283677910877 3.246404887920876 0.0
    vertex 0.990528367791087 2.571293008466018 0.0
    vertex 0.9460882852505108 2.908848948193447 0.0
  endloop
endfacet
facet normal 0.0 0.0 -1.0
  outer loop
    vertex 0.990528367791087 2.571293008466018 0.0
    vertex 0.9905283677910877 3.246404887920876 0.0
    vertex 1.1208200972283848 2.256740948193447 0.0
  endloop
endfacet
facet normal 0.0 0.0 -1.0
  outer loop
    vertex 1.1208200972283848 2.256740948193447 0.0
    vertex 0.9905283677910877 3.246404887920876 0.0
    vertex 1.1208200972283857 3.5609569481934464 0.0
  endloop
endfacet
facet normal 0.0 0.0 -1.0
  outer loop
    vertex 1.1208200972283848 2.256740948193447 0.0
    vertex 1.1208200972283857 3.5609569481934464 0.0
    vertex 1.328084307518516 1.9866289704614526 0.0
  endloop
endfacet
facet normal 0.0 0.0 -1.0
  outer loop
    vertex 1.328084307518516 1.9866289704614526 0.0
    vertex 1.1208200972283857 3.5609569481934464 0.0
    vertex 1.328084307518517 3.8310689259254405 0.0
  endloop
endfacet
facet normal 0.0 0.0 -1.0
  outer loop
    vertex 1.328084307518516 1.9866289704614526 0.0
    vertex 1.328084307518517 3.8310689259254405 0.0
    vertex 1.5981962852505105 1.7793647601713214 0.0
  endloop
endfacet
facet normal 0.0 0.0 -1.0
  outer loop
    vertex 1.5981962852505105 1.7793647601713214 0.0
    vertex 1.328084307518517 3.8310689259254405 0.0
    vertex 1.5981962852505112 4.038333136215572 0.0
  endloop
endfacet
facet normal 0.0 0.0 -1.0
  outer loop
    vertex 1.5981962852505105 1.7793647601713214 0.0
    vertex 1.5981962852505112 4.038333136215572 0.0
    vertex 1.9127483455230814 1.6490730307340233 0.0
  endloop
endfacet
facet normal 0.0 0.0 -1.0
  outer loop
    vertex 1.9127483455230814 1.6490730307340233 0.0
    vertex 1.5981962852505112 4.038333136215572 0.0
    vertex 1.9127483455230818 4.16862486565287 0.0
  endloop
endfacet
facet normal 0.0 0.0 -1.0
  outer loop
    vertex 1.9127483455230814 1.6490730307340233 0.0
    vertex 1.9127483455230818 4.16862486565287 0.0
    vertex 2.250304285250511 1.6046329481934465 0.0
  endloop
endfacet
facet normal 0.0 0.0 -1.0
  outer loop
    vertex 2.250304285250511 1.6046329481934465 0.0
    vertex 1.9127483455230818 4.16862486565287 0.0
    vertex 2.250304285250511 4.213064948193447 0.0
  endloop
endfacet
facet normal 0.0 0.0 -1.0
  outer loop
    vertex 2.250304285250511 1.6046329481934465 0.0
    vertex 2.250304285250511 4.213064948193447 0.0
    vertex 8.02695228525051 4.213064948193447 0.0
  endloop
endfacet
facet normal 0.0 0.0 -1.0
  outer loop
    vertex 2.250304285250511 1.6046329481934465 0.0
    vertex 8.02695228525051 4.213064948193447 0.0
    vertex 8.02695228525051 1.6046329481934465 0.0
  endloop
endfacet
facet normal 0.0 0.0 1.0
  outer loop
    vertex 0.990528367791087 2.571293008466018 0.510664
    vertex 0.9905283677910877 3.246404887920876 0.510664
    vertex 0.9460882852505108 2.908848948193447 0.510664
  endloop
endfacet
facet normal 0.0 0.0 1.0
  outer loop
    vertex 0.9905283677910877 3.246404887920876 0.510664
    vertex 0.990528367791087 2.571293008466018 0.510664
    vertex 1.1208200972283848 2.256740948193447 0.510664
  endloop
endfacet
facet normal 0.0 0.0 1.0
  outer loop
    vertex 0.9905283677910877 3.246404887920876 0.510664
    vertex 1.1208200972283848 2.256740948193447 0.510664
    vertex 1.1208200972283857 3.5609569481934464 0.510664
  endloop
endfacet
facet normal 0.0 0.0 1.0
  outer loop
    vertex 1.1208200972283857 3.5609569481934464 0.510664
    vertex 1.1208200972283848 2.256740948193447 0.510664
    vertex 1.328084307518516 1.9866289704614526 0.510664
  endloop
endfacet
facet normal 0.0 0.0 1.0
  outer loop
    vertex 1.1208200972283857 3.5609569481934464 0.510664
    vertex 1.328084307518516 1.9866289704614526 0.510664
    vertex 1.298358574482167 2.9194157583712146 0.5106640000000002
  endloop
endfacet
facet normal 0.0 0.0 1.0
  outer loop
    vertex 1.298358574482167 2.9194157583712146 0.5106640000000002
    vertex 1.328084307518516 1.9866289704614526 0.510664
    vertex 1.3107468195957295 2.825317694600426 0.5106640000000002
  endloop
endfacet
facet normal 0.0 0.0 1.0
  outer loop
    vertex 1.3107468195957295 2.825317694600426 0.5106640000000002
    vertex 1.328084307518516 1.9866289704614526 0.510664
    vertex 1.3470673165044702 2.7376322583712143 0.5106640000000002
  endloop
endfacet
facet normal 0.0 0.0 1.0
  outer loop
    vertex 1.3470673165044702 2.7376322583712143 0.5106640000000002
    vertex 1.328084307518516 1.9866289704614526 0.510664
    vertex 1.5981962852505105 1.7793647601713214 0.510664
  endloop
endfacet
facet normal 0.0 0.0 1.0
  outer loop
    vertex 1.3470673165044702 2.7376322583712143 0.5106640000000002
    vertex 1.5981962852505105 1.7793647601713214 0.510664
    vertex 1.4048448833665177 2.662335067255565 0.5106640000000002
  endloop
endfacet
facet normal 0.0 0.0 1.0
  outer loop
    vertex 1.4048448833665177 2.662335067255565 0.5106640000000002
    vertex 1.5981962852505105 1.7793647601713214 0.510664
    vertex 1.4801420744821672 2.6045575003935175 0.5106640000000002
  endloop
endfacet
facet normal 0.0 0.0 1.0
  outer loop
    vertex 1.4801420744821672 2.6045575003935175 0.5106640000000002
    vertex 1.5981962852505105 1.7793647601713214 0.510664
    vertex 1.567827510711379 2.568237003484777 0.5106640000000002
  endloop
endfacet
facet normal 0.0 0.0 1.0
  outer loop
    vertex 1.567827510711379 2.568237003484777 0.5106640000000002
    vertex 1.5981962852505105 1.7793647601713214 0.510664
    vertex 1.6619255744821673 2.5558487583712144 0.5106640000000002
  endloop
endfacet
facet normal 0.0 0.0 1.0
  outer loop
    vertex 1.6619255744821673 2.5558487583712144 0.5106640000000002
    vertex 1.5981962852505105 1.7793647601713214 0.510664
    vertex 1.9127483455230814 1.6490730307340233 0.510664
  endloop
endfacet
facet normal 0.0 0.0 1.0
  outer loop
    vertex 1.6619255744821673 2.5558487583712144 0.5106640000000002
    vertex 1.9127483455230814 1.6490730307340233 0.510664
    vertex 1.7560236382529555 2.568237003484777 0.5106640000000002
  endloop
endfacet
facet normal 0.0 0.0 1.0
  outer loop
    vertex 1.7560236382529555 2.568237003484777 0.5106640000000002
    vertex 1.9127483455230814 1.6490730307340233 0.510664
    vertex 1.8437090744821674 2.6045575003935175 0.5106640000000002
  endloop
endfacet
facet normal 0.0 0.0 1.0
  outer loop
    vertex 1.8437090744821674 2.6045575003935175 0.5106640000000002
    vertex 1.9127483455230814 1.6490730307340233 0.510664
    vertex 1.919006265597817 2.662335067255565 0.5106640000000002
  endloop
endfacet
facet normal 0.0 0.0 1.0
  outer loop
    vertex 1.919006265597817 2.662335067255565 0.5106640000000002
    vertex 1.9127483455230814 1.6490730307340233 0.510664
    vertex 2.250304285250511 1.6046329481934465 0.510664
  endloop
endfacet
facet normal 0.0 0.0 1.0
  outer loop
    vertex 1.919006265597817 2.662335067255565 0.5106640000000002
    vertex 2.250304285250511 1.6046329481934465 0.510664
    vertex 1.9767838324598643 2.7376322583712147 0.5106640000000002
  endloop
endfacet
facet normal 0.0 0.0 1.0
  outer loop
    vertex 1.9767838324598643 2.7376322583712147 0.5106640000000002
    vertex 2.250304285250511 1.6046329481934465 0.510664
    vertex 2.013104329368605 2.8253176946004266 0.5106640000000002
  endloop
endfacet
facet normal 0.0 0.0 1.0
  outer loop
    vertex 2.013104329368605 2.8253176946004266 0.5106640000000002
    vertex 2.250304285250511 1.6046329481934465 0.510664
    vertex 2.0254925744821675 2.9194157583712146 0.5106640000000002
  endloop
endfacet
facet normal 0.0 0.0 1.0
  outer loop
    vertex 2.0254925744821675 2.9194157583712146 0.5106640000000002
    vertex 2.250304285250511 1.6046329481934465 0.510664
    vertex 2.22939141495816 1.882877073864548 0.5106640000000002
  endloop
endfacet
facet normal 0.0 0.0 1.0
  outer loop
    vertex 2.22939141495816 1.882877073864548 0.5106640000000002
    vertex 2.250304285250511 1.6046329481934465 0.510664
    vertex 7.78265641495816 1.882877073864548 0.5106640000000002
  endloop
endfacet
facet normal 0.0 0.0 1.0
  outer loop
    vertex 7.78265641495816 1.882877073864548 0.5106640000000002
    vertex 2.250304285250511 1.6046329481934465 0.510664
    vertex 8.02695228525051 1.6046329481934465 0.510664
  endloop
endfacet
facet normal 0.0 0.0 1.0
  outer loop
    vertex 7.78265641495816 1.882877073864548 0.5106640000000002
    vertex 8.02695228525051 1.6046329481934465 0.510664
    vertex 7.78265641495816 3.907156073864548 0.5106640000000002
  endloop
endfacet
facet normal 0.0 0.0 1.0
  outer loop
    vertex 1.298358574482167 2.9194157583712146 0.5106640000000002
    vertex 1.328084307518517 3.8310689259254405 0.510664
    vertex 1.1208200972283857 3.5609569481934464 0.510664
  endloop
endfacet
facet normal 0.0 0.0 1.0
  outer loop
    vertex 1.328084307518517 3.8310689259254405 0.510664
    vertex 1.298358574482167 2.9194157583712146 0.5106640000000002
    vertex 1.3107468195957295 3.0135138221420026 0.5106640000000002
  endloop
endfacet
facet normal 0.0 0.0 1.0
  outer loop
    vertex 1.328084307518517 3.8310689259254405 0.510664
    vertex 1.3107468195957295 3.0135138221420026 0.5106640000000002
    vertex 1.34706731650447 3.1011992583712145 0.5106640000000002
  endloop
endfacet
facet normal 0.0 0.0 1.0
  outer loop
    vertex 1.328084307518517 3.8310689259254405 0.510664
    vertex 1.34706731650447 3.1011992583712145 0.5106640000000002
    vertex 1.5981962852505112 4.038333136215572 0.510664
  endloop
endfacet
facet normal 0.0 0.0 1.0
  outer loop
    vertex 1.5981962852505112 4.038333136215572 0.510664
    vertex 1.34706731650447 3.1011992583712145 0.5106640000000002
    vertex 1.4048448833665175 3.176496449486864 0.5106640000000002
  endloop
endfacet
facet normal 0.0 0.0 1.0
  outer loop
    vertex 1.5981962852505112 4.038333136215572 0.510664
    vertex 1.4048448833665175 3.176496449486864 0.5106640000000002
    vertex 1.480142074482167 3.2342740163489117 0.5106640000000002
  endloop
endfacet
facet normal 0.0 0.0 1.0
  outer loop
    vertex 1.5981962852505112 4.038333136215572 0.510664
    vertex 1.480142074482167 3.2342740163489117 0.5106640000000002
    vertex 1.5678275107113788 3.2705945132576524 0.5106640000000002
  endloop
endfacet
facet normal 0.0 0.0 1.0
  outer loop
    vertex 1.5981962852505112 4.038333136215572 0.510664
    vertex 1.5678275107113788 3.2705945132576524 0.5106640000000002
    vertex 1.6619255744821673 3.282982758371215 0.5106640000000002
  endloop
endfacet
facet normal 0.0 0.0 1.0
  outer loop
    vertex 1.5981962852505112 4.038333136215572 0.510664
    vertex 1.6619255744821673 3.282982758371215 0.5106640000000002
    vertex 1.9127483455230818 4.16862486565287 0.510664
  endloop
endfacet
facet normal 0.0 0.0 1.0
  outer loop
    vertex 1.9127483455230818 4.16862486565287 0.510664
    vertex 1.6619255744821673 3.282982758371215 0.5106640000000002
    vertex 1.7560236382529553 3.2705945132576524 0.5106640000000002
  endloop
endfacet
facet normal 0.0 0.0 1.0
  outer loop
    vertex 1.9127483455230818 4.16862486565287 0.510664
    vertex 1.7560236382529553 3.2705945132576524 0.5106640000000002
    vertex 1.8437090744821671 3.234274016348912 0.5106640000000002
  endloop
endfacet
facet normal 0.0 0.0 1.0
  outer loop
    vertex 1.9127483455230818 4.16862486565287 0.510664
    vertex 1.8437090744821671 3.234274016348912 0.5106640000000002
    vertex 1.9190062655978168 3.1764964494868644 0.5106640000000002
  endloop
endfacet
facet normal 0.0 0.0 1.0
  outer loop
    vertex 1.9127483455230818 4.16862486565287 0.510664
    vertex 1.9190062655978168 3.1764964494868644 0.5106640000000002
    vertex 2.250304285250511 4.213064948193447 0.510664
  endloop
endfacet
facet normal 0.0 0.0 1.0
  outer loop
    vertex 2.250304285250511 4.213064948193447 0.510664
    vertex 1.9190062655978168 3.1764964494868644 0.5106640000000002
    vertex 1.9767838324598643 3.101199258371215 0.5106640000000002
  endloop
endfacet
facet normal 0.0 0.0 1.0
  outer loop
    vertex 2.250304285250511 4.213064948193447 0.510664
    vertex 1.9767838324598643 3.101199258371215 0.5106640000000002
    vertex 2.013104329368605 3.013513822142003 0.5106640000000002
  endloop
endfacet
facet normal 0.0 0.0 1.0
  outer loop
    vertex 2.250304285250511 4.213064948193447 0.510664
    vertex 2.013104329368605 3.013513822142003 0.5106640000000002
    vertex 2.0254925744821675 2.9194157583712146 0.5106640000000002
  endloop
endfacet
facet normal 0.0 0.0 1.0
  outer loop
    vertex 2.250304285250511 4.213064948193447 0.510664
    vertex 2.0254925744821675 2.9194157583712146 0.5106640000000002
    vertex 2.22939141495816 3.907156073864548 0.5106640000000002
  endloop
endfacet
facet normal 0.0 0.0 1.0
  outer loop
    vertex 2.22939141495816 3.907156073864548 0.5106640000000002
    vertex 2.0254925744821675 2.9194157583712146 0.5106640000000002
    vertex 2.22939141495816 1.882877073864548 0.5106640000000002
  endloop
endfacet
facet normal 0.0 0.0 1.0
  outer loop
    vertex 2.250304285250511 4.213064948193447 0.510664
    vertex 2.22939141495816 3.907156073864548 0.5106640000000002
    vertex 7.78265641495816 3.907156073864548 0.5106640000000002
  endloop
endfacet
facet normal 0.0 0.0 1.0
  outer loop
    vertex 2.250304285250511 4.213064948193447 0.510664
    vertex 7.78265641495816 3.907156073864548 0.5106640000000002
    vertex 8.02695228525051 4.213064948193447 0.510664
  endloop
endfacet
facet normal 0.0 0.0 1.0
  outer loop
    vertex 8.02695228525051 4.213064948193447 0.510664
    vertex 7.78265641495816 3.907156073864548 0.5106640000000002
    vertex 8.02695228525051 1.6046329481934465 0.510664
  endloop
endfacet
facet normal -0.0 1.0 0.0
  outer loop
    vertex 2.250304285250511 4.213064948193447 0.510664
    vertex 8.02695228525051 4.213064948193447 0.0
    vertex 2.250304285250511 4.213064948193447 0.0
  endloop
endfacet
facet normal -0.0 1.0 0.0
  outer loop
    vertex 8.02695228525051 4.213064948193447 0.0
    vertex 2.250304285250511 4.213064948193447 0.510664
    vertex 8.02695228525051 4.213064948193447 0.510664
  endloop
endfacet
facet normal 1.0 0.0 0.0
  outer loop
    vertex 8.02695228525051 4.213064948193447 0.0
    vertex 8.02695228525051 1.6046329481934465 0.510664
    vertex 8.02695228525051 1.6046329481934465 0.0
  endloop
endfacet
facet normal 1.0 0.0 0.0
  outer loop
    vertex 8.02695228525051 1.6046329481934465 0.510664
    vertex 8.02695228525051 4.213064948193447 0.0
    vertex 8.02695228525051 4.213064948193447 0.510664
  endloop
endfacet
facet normal -0.7071067811865476 0.7071067811865475 0.0
  outer loop
    vertex 1.328084307518517 3.8310689259254405 0.510664
    vertex 1.1208200972283857 3.5609569481934464 0.0
    vertex 1.1208200972283857 3.5609569481934464 0.510664
  endloop
endfacet
facet normal -0.8660254037844384 0.5000000000000004 0.0
  outer loop
    vertex 1.1208200972283857 3.5609569481934464 0.0
    vertex 1.328084307518517 3.8310689259254405 0.510664
    vertex 1.328084307518517 3.8310689259254405 0.0
  endloop
endfacet
facet normal -0.4999999999999998 -0.8660254037844388 0.0
  outer loop
    vertex 1.5981962852505105 1.7793647601713214 0.510664
    vertex 1.328084307518516 1.9866289704614526 0.0
    vertex 1.5981962852505105 1.7793647601713214 0.0
  endloop
endfacet
facet normal -0.7071067811865476 -0.7071067811865476 0.0
  outer loop
    vertex 1.328084307518516 1.9866289704614526 0.0
    vertex 1.5981962852505105 1.7793647601713214 0.510664
    vertex 1.328084307518516 1.9866289704614526 0.510664
  endloop
endfacet
facet normal -0.8660254037844389 -0.49999999999999956 0.0
  outer loop
    vertex 1.1208200972283848 2.256740948193447 0.510664
    vertex 1.328084307518516 1.9866289704614526 0.0
    vertex 1.328084307518516 1.9866289704614526 0.510664
  endloop
endfacet
facet normal -0.7071067811865476 -0.7071067811865476 0.0
  outer loop
    vertex 1.328084307518516 1.9866289704614526 0.0
    vertex 1.1208200972283848 2.256740948193447 0.510664
    vertex 1.1208200972283848 2.256740948193447 0.0
  endloop
endfacet
facet normal -0.1305261922200524 -0.9914448613738104 -0.0
  outer loop
    vertex 2.250304285250511 1.6046329481934465 0.510664
    vertex 1.9127483455230814 1.6490730307340233 0.0
    vertex 2.250304285250511 1.6046329481934465 0.0
  endloop
endfacet
facet normal -0.2588190451025211 -0.9659258262890682 0.0
  outer loop
    vertex 1.9127483455230814 1.6490730307340233 0.0
    vertex 2.250304285250511 1.6046329481934465 0.510664
    vertex 1.9127483455230814 1.6490730307340233 0.510664
  endloop
endfacet
facet normal -0.9659258262890682 0.2588190451025215 0.0
  outer loop
    vertex 0.9905283677910877 3.246404887920876 0.510664
    vertex 0.9460882852505108 2.908848948193447 0.0
    vertex 0.9460882852505108 2.908848948193447 0.510664
  endloop
endfacet
facet normal -1.0 1.0693331874776287e-15 0.0
  outer loop
    vertex 0.9460882852505108 2.908848948193447 0.0
    vertex 0.9905283677910877 3.246404887920876 0.510664
    vertex 0.9905283677910877 3.246404887920876 0.0
  endloop
endfacet
facet normal -0.8660254037844384 0.5000000000000004 0.0
  outer loop
    vertex 1.1208200972283857 3.5609569481934464 0.510664
    vertex 0.9905283677910877 3.246404887920876 0.0
    vertex 0.9905283677910877 3.246404887920876 0.510664
  endloop
endfacet
facet normal -0.9659258262890682 0.2588190451025215 0.0
  outer loop
    vertex 0.9905283677910877 3.246404887920876 0.0
    vertex 1.1208200972283857 3.5609569481934464 0.510664
    vertex 1.1208200972283857 3.5609569481934464 0.0
  endloop
endfacet
facet normal -0.0 -1.0 -0.0
  outer loop
    vertex 8.02695228525051 1.6046329481934465 0.510664
    vertex 2.250304285250511 1.6046329481934465 0.0
    vertex 8.02695228525051 1.6046329481934465 0.0
  endloop
endfacet
facet normal -0.0 -1.0 -0.0
  outer loop
    vertex 2.250304285250511 1.6046329481934465 0.0
    vertex 8.02695228525051 1.6046329481934465 0.510664
    vertex 2.250304285250511 1.6046329481934465 0.510664
  endloop
endfacet
facet normal -0.2588190451025211 -0.9659258262890682 0.0
  outer loop
    vertex 1.9127483455230814 1.6490730307340233 0.510664
    vertex 1.5981962852505105 1.7793647601713214 0.0
    vertex 1.9127483455230814 1.6490730307340233 0.0
  endloop
endfacet
facet normal -0.4999999999999998 -0.8660254037844388 0.0
  outer loop
    vertex 1.5981962852505105 1.7793647601713214 0.0
    vertex 1.9127483455230814 1.6490730307340233 0.510664
    vertex 1.5981962852505105 1.7793647601713214 0.510664
  endloop
endfacet
facet normal -0.9659258262890685 -0.25881904510251996 0.0
  outer loop
    vertex 0.990528367791087 2.571293008466018 0.510664
    vertex 1.1208200972283848 2.256740948193447 0.0
    vertex 1.1208200972283848 2.256740948193447 0.510664
  endloop
endfacet
facet normal -0.8660254037844389 -0.49999999999999956 0.0
  outer loop
    vertex 1.1208200972283848 2.256740948193447 0.0
    vertex 0.990528367791087 2.571293008466018 0.510664
    vertex 0.990528367791087 2.571293008466018 0.0
  endloop
endfacet
facet normal -1.0 1.0693331874776287e-15 0.0
  outer loop
    vertex 0.9460882852505108 2.908848948193447 0.510664
    vertex 0.990528367791087 2.571293008466018 0.0
    vertex 0.990528367791087 2.571293008466018 0.510664
  endloop
endfacet
facet normal -0.9659258262890685 -0.25881904510251996 0.0
  outer loop
    vertex 0.990528367791087 2.571293008466018 0.0
    vertex 0.9460882852505108 2.908848948193447 0.510664
    vertex 0.9460882852505108 2.908848948193447 0.0
  endloop
endfacet
facet normal -0.7071067811865476 0.7071067811865475 0.0
  outer loop
    vertex 1.328084307518517 3.8310689259254405 0.510664
    vertex 1.5981962852505112 4.038333136215572 0.0
    vertex 1.328084307518517 3.8310689259254405 0.0
  endloop
endfacet
facet normal -0.5000000000000001 0.8660254037844388 0.0
  outer loop
    vertex 1.5981962852505112 4.038333136215572 0.0
    vertex 1.328084307518517 3.8310689259254405 0.510664
    vertex 1.5981962852505112 4.038333136215572 0.510664
  endloop
endfacet
facet normal -0.5000000000000001 0.8660254037844388 0.0
  outer loop
    vertex 1.5981962852505112 4.038333136215572 0.510664
    vertex 1.9127483455230818 4.16862486565287 0.0
    vertex 1.5981962852505112 4.038333136215572 0.0
  endloop
endfacet
facet normal -0.258819045102521 0.9659258262890682 0.0
  outer loop
    vertex 1.9127483455230818 4.16862486565287 0.0
    vertex 1.5981962852505112 4.038333136215572 0.510664
    vertex 1.9127483455230818 4.16862486565287 0.510664
  endloop
endfacet
facet normal -0.258819045102521 0.9659258262890682 0.0
  outer loop
    vertex 1.9127483455230818 4.16862486565287 0.510664
    vertex 2.250304285250511 4.213064948193447 0.0
    vertex 1.9127483455230818 4.16862486565287 0.0
  endloop
endfacet
facet normal -0.13052619222005254 0.9914448613738103 0.0
  outer loop
    vertex 2.250304285250511 4.213064948193447 0.0
    vertex 1.9127483455230818 4.16862486565287 0.510664
    vertex 2.250304285250511 4.213064948193447 0.510664
  endloop
endfacet
facet normal 0.0 0.0 1.0
  outer loop
    vertex 7.78265641495816 1.882877073864548 0.2651520000000001
    vertex 2.22939141495816 3.907156073864548 0.2651520000000001
    vertex 2.22939141495816 1.882877073864548 0.2651520000000001
  endloop
endfacet
facet normal 0.0 0.0 1.0
  outer loop
    vertex 2.22939141495816 3.907156073864548 0.2651520000000001
    vertex 7.78265641495816 1.882877073864548 0.2651520000000001
    vertex 7.78265641495816 3.907156073864548 0.2651520000000001
  endloop
endfacet
facet normal -0.0 -1.0 -0.0
  outer loop
    vertex 7.78265641495816 3.907156073864548 0.5106640000000002
    vertex 2.22939141495816 3.907156073864548 0.2651520000000001
    vertex 7.78265641495816 3.907156073864548 0.2651520000000001
  endloop
endfacet
facet normal -0.0 -1.0 -0.0
  outer loop
    vertex 2.22939141495816 3.907156073864548 0.2651520000000001
    vertex 7.78265641495816 3.907156073864548 0.5106640000000002
    vertex 2.22939141495816 3.907156073864548 0.5106640000000002
  endloop
endfacet
facet normal 1.0 0.0 0.0
  outer loop
    vertex 2.22939141495816 3.907156073864548 0.2651520000000001
    vertex 2.22939141495816 1.882877073864548 0.5106640000000002
    vertex 2.22939141495816 1.882877073864548 0.2651520000000001
  endloop
endfacet
facet normal 1.0 0.0 0.0
  outer loop
    vertex 2.22939141495816 1.882877073864548 0.5106640000000002
    vertex 2.22939141495816 3.907156073864548 0.2651520000000001
    vertex 2.22939141495816 3.907156073864548 0.5106640000000002
  endloop
endfacet
facet normal -0.0 1.0 -0.0
  outer loop
    vertex 2.22939141495816 1.882877073864548 0.5106640000000002
    vertex 7.78265641495816 1.882877073864548 0.2651520000000001
    vertex 2.22939141495816 1.882877073864548 0.2651520000000001
  endloop
endfacet
facet normal -0.0 1.0 -0.0
  outer loop
    vertex 7.78265641495816 1.882877073864548 0.2651520000000001
    vertex 2.22939141495816 1.882877073864548 0.5106640000000002
    vertex 7.78265641495816 1.882877073864548 0.5106640000000002
  endloop
endfacet
facet normal -1.0 0.0 -0.0
  outer loop
    vertex 7.78265641495816 3.907156073864548 0.5106640000000002
    vertex 7.78265641495816 1.882877073864548 0.2651520000000001
    vertex 7.78265641495816 1.882877073864548 0.5106640000000002
  endloop
endfacet
facet normal -1.0 0.0 -0.0
  outer loop
    vertex 7.78265641495816 1.882877073864548 0.2651520000000001
    vertex 7.78265641495816 3.907156073864548 0.5106640000000002
    vertex 7.78265641495816 3.907156073864548 0.2651520000000001
  endloop
endfacet
facet normal 0.0 0.0 -1.0
  outer loop
    vertex 3.3062259580674547 3.453765718927623 0.2651519999999845
    vertex 3.419790889226571 3.2841754217300094 0.2651519999999845
    vertex 3.3062259580674547 2.444703450601823 0.2651519999999845
  endloop
endfacet
facet normal 0.0 0.0 -1.0
  outer loop
    vertex 3.419790889226571 3.2841754217300094 0.2651519999999845
    vertex 3.3062259580674547 3.453765718927623 0.2651519999999845
    vertex 3.470264191963956 3.453765718927623 0.2651519999999845
  endloop
endfacet
facet normal 0.0 0.0 -1.0
  outer loop
    vertex 3.419790889226571 3.2841754217300094 0.2651519999999845
    vertex 3.470264191963956 3.453765718927623 0.2651519999999845
    vertex 3.42231455436344 3.2841754217300094 0.2651519999999845
  endloop
endfacet
facet normal 0.0 0.0 -1.0
  outer loop
    vertex 3.42231455436344 3.2841754217300094 0.2651519999999845
    vertex 3.470264191963956 3.453765718927623 0.2651519999999845
    vertex 3.703703217124361 2.444703450601823 0.2651519999999845
  endloop
endfacet
facet normal 0.0 0.0 -1.0
  outer loop
    vertex 3.703703217124361 2.444703450601823 0.2651519999999845
    vertex 3.470264191963956 3.453765718927623 0.2651519999999845
    vertex 3.7541765198617463 2.6058142329395557 0.2651519999999845
  endloop
endfacet
facet normal 0.0 0.0 -1.0
  outer loop
    vertex 3.703703217124361 2.444703450601823 0.2651519999999845
    vertex 3.7541765198617463 2.6058142329395557 0.2651519999999845
    vertex 3.805911655167566 2.444703450601823 0.2651519999999845
  endloop
endfacet
facet normal 0.0 0.0 -1.0
  outer loop
    vertex 3.805911655167566 2.444703450601823 0.2651519999999845
    vertex 3.7541765198617463 2.6058142329395557 0.2651519999999845
    vertex 4.0393506803279715 3.453765718927623 0.2651519999999845
  endloop
endfacet
facet normal 0.0 0.0 -1.0
  outer loop
    vertex 3.805911655167566 2.444703450601823 0.2651519999999845
    vertex 4.0393506803279715 3.453765718927623 0.2651519999999845
    vertex 4.087300317928487 3.2841754217300094 0.2651519999999845
  endloop
endfacet
facet normal 0.0 0.0 -1.0
  outer loop
    vertex 4.087300317928487 3.2841754217300094 0.2651519999999845
    vertex 4.0393506803279715 3.453765718927623 0.2651519999999845
    vertex 4.2033889142244725 3.453765718927623 0.2651519999999845
  endloop
endfacet
facet normal 0.0 0.0 -1.0
  outer loop
    vertex 4.087300317928487 3.2841754217300094 0.2651519999999845
    vertex 4.2033889142244725 3.453765718927623 0.2651519999999845
    vertex 4.089823983065356 3.2841754217300094 0.2651519999999845
  endloop
endfacet
facet normal 0.0 0.0 -1.0
  outer loop
    vertex 4.089823983065356 3.2841754217300094 0.2651519999999845
    vertex 4.2033889142244725 3.453765718927623 0.2651519999999845
    vertex 4.089823983065356 2.444703450601823 0.2651519999999845
  endloop
endfacet
facet normal 0.0 0.0 -1.0
  outer loop
    vertex 4.089823983065356 2.444703450601823 0.2651519999999845
    vertex 4.2033889142244725 3.453765718927623 0.2651519999999845
    vertex 4.2033889142244725 2.444703450601823 0.2651519999999845
  endloop
endfacet
facet normal 0.0 0.0 -1.0
  outer loop
    vertex 3.419790889226571 2.444703450601823 0.2651519999999845
    vertex 3.3062259580674547 2.444703450601823 0.2651519999999845
    vertex 3.419790889226571 3.2841754217300094 0.2651519999999845
  endloop
endfacet
facet normal 0.0 0.0 -1.0
  outer loop
    vertex 4.64755397831346 3.453765718927623 0.2651519999999845
    vertex 4.419162283426793 2.444703450601823 0.2651519999999845
    vertex 4.296764524288634 2.444703450601823 0.2651519999999845
  endloop
endfacet
facet normal 0.0 0.0 -1.0
  outer loop
    vertex 4.419162283426793 2.444703450601823 0.2651519999999845
    vertex 4.64755397831346 3.453765718927623 0.2651519999999845
    vertex 4.520108888901563 2.7485527330808806 0.2651519999999845
  endloop
endfacet
facet normal 0.0 0.0 -1.0
  outer loop
    vertex 4.520108888901563 2.7485527330808806 0.2651519999999845
    vertex 4.64755397831346 3.453765718927623 0.2651519999999845
    vertex 4.557963865954601 2.8616129312126226 0.2651519999999845
  endloop
endfacet
facet normal 0.0 0.0 -1.0
  outer loop
    vertex 4.557963865954601 2.8616129312126226 0.2651519999999845
    vertex 4.64755397831346 3.453765718927623 0.2651519999999845
    vertex 4.710645606735191 3.332226005936 0.2651519999999845
  endloop
endfacet
facet normal 0.0 0.0 -1.0
  outer loop
    vertex 4.710645606735191 3.332226005936 0.2651519999999845
    vertex 4.64755397831346 3.453765718927623 0.2651519999999845
    vertex 4.7800463979990955 3.453765718927623 0.2651519999999845
  endloop
endfacet
facet normal 0.0 0.0 -1.0
  outer loop
    vertex 4.710645606735191 3.332226005936 0.2651519999999845
    vertex 4.7800463979990955 3.453765718927623 0.2651519999999845
    vertex 4.713169271872061 3.332226005936 0.2651519999999845
  endloop
endfacet
facet normal 0.0 0.0 -1.0
  outer loop
    vertex 4.713169271872061 3.332226005936 0.2651519999999845
    vertex 4.7800463979990955 3.453765718927623 0.2651519999999845
    vertex 4.8633273475157806 2.8616129312126226 0.2651519999999845
  endloop
endfacet
facet normal 0.0 0.0 -1.0
  outer loop
    vertex 4.8633273475157806 2.8616129312126226 0.2651519999999845
    vertex 4.7800463979990955 3.453765718927623 0.2651519999999845
    vertex 5.132097684592355 2.444703450601823 0.2651519999999845
  endloop
endfacet
facet normal 0.0 0.0 -1.0
  outer loop
    vertex 4.8633273475157806 2.8616129312126226 0.2651519999999845
    vertex 5.132097684592355 2.444703450601823 0.2651519999999845
    vertex 4.901182324568819 2.7485527330808806 0.2651519999999845
  endloop
endfacet
facet normal 0.0 0.0 -1.0
  outer loop
    vertex 4.901182324568819 2.7485527330808806 0.2651519999999845
    vertex 5.132097684592355 2.444703450601823 0.2651519999999845
    vertex 4.9996052649067195 2.444703450601823 0.2651519999999845
  endloop
endfacet
facet normal 0.0 0.0 -1.0
  outer loop
    vertex 4.557963865954601 2.8616129312126226 0.2651519999999845
    vertex 4.901182324568819 2.7485527330808806 0.2651519999999845
    vertex 4.520108888901563 2.7485527330808806 0.2651519999999845
  endloop
endfacet
facet normal 0.0 0.0 -1.0
  outer loop
    vertex 4.901182324568819 2.7485527330808806 0.2651519999999845
    vertex 4.557963865954601 2.8616129312126226 0.2651519999999845
    vertex 4.8633273475157806 2.8616129312126226 0.2651519999999845
  endloop
endfacet
facet normal 0.0 0.0 -1.0
  outer loop
    vertex 5.800868945862707 3.453765718927623 0.2651519999999845
    vertex 5.592666572070993 2.8573731737826824 0.2651519999999845
    vertex 5.53714593905987 2.973259876867718 0.2651519999999845
  endloop
endfacet
facet normal 0.0 0.0 -1.0
  outer loop
    vertex 5.592666572070993 2.8573731737826824 0.2651519999999845
    vertex 5.800868945862707 3.453765718927623 0.2651519999999845
    vertex 5.937146863253645 3.453765718927623 0.2651519999999845
  endloop
endfacet
facet normal 0.0 0.0 -1.0
  outer loop
    vertex 5.26711376941486 3.453765718927623 0.2651519999999845
    vertex 5.472792478069703 2.8573731737826824 0.2651519999999845
    vertex 5.124526689181748 3.453765718927623 0.2651519999999845
  endloop
endfacet
facet normal 0.0 0.0 -1.0
  outer loop
    vertex 5.472792478069703 2.8573731737826824 0.2651519999999845
    vertex 5.26711376941486 3.453765718927623 0.2651519999999845
    vertex 5.53714593905987 2.973259876867718 0.2651519999999845
  endloop
endfacet
facet normal 0.0 0.0 -1.0
  outer loop
    vertex 5.472792478069703 2.8573731737826824 0.2651519999999845
    vertex 5.53714593905987 2.973259876867718 0.2651519999999845
    vertex 5.472792478069703 2.444703450601823 0.2651519999999845
  endloop
endfacet
facet normal 0.0 0.0 -1.0
  outer loop
    vertex 5.472792478069703 2.444703450601823 0.2651519999999845
    vertex 5.53714593905987 2.973259876867718 0.2651519999999845
    vertex 5.592666572070993 2.444703450601823 0.2651519999999845
  endloop
endfacet
facet normal 0.0 0.0 -1.0
  outer loop
    vertex 5.592666572070993 2.444703450601823 0.2651519999999845
    vertex 5.53714593905987 2.973259876867718 0.2651519999999845
    vertex 5.592666572070993 2.8573731737826824 0.2651519999999845
  endloop
endfacet
facet normal 0.0 0.0 -1.0
  outer loop
    vertex 6.282888987004732 3.453765718927623 0.2651519999999845
    vertex 6.054497292118065 2.444703450601823 0.2651519999999845
    vertex 5.932099532979907 2.444703450601823 0.2651519999999845
  endloop
endfacet
facet normal 0.0 0.0 -1.0
  outer loop
    vertex 6.054497292118065 2.444703450601823 0.2651519999999845
    vertex 6.282888987004732 3.453765718927623 0.2651519999999845
    vertex 6.155443897592836 2.7485527330808806 0.2651519999999845
  endloop
endfacet
facet normal 0.0 0.0 -1.0
  outer loop
    vertex 6.155443897592836 2.7485527330808806 0.2651519999999845
    vertex 6.282888987004732 3.453765718927623 0.2651519999999845
    vertex 6.193298874645874 2.8616129312126226 0.2651519999999845
  endloop
endfacet
facet normal 0.0 0.0 -1.0
  outer loop
    vertex 6.193298874645874 2.8616129312126226 0.2651519999999845
    vertex 6.282888987004732 3.453765718927623 0.2651519999999845
    vertex 6.3459806154264635 3.332226005936 0.2651519999999845
  endloop
endfacet
facet normal 0.0 0.0 -1.0
  outer loop
    vertex 6.3459806154264635 3.332226005936 0.2651519999999845
    vertex 6.282888987004732 3.453765718927623 0.2651519999999845
    vertex 6.4153814066903685 3.453765718927623 0.2651519999999845
  endloop
endfacet
facet normal 0.0 0.0 -1.0
  outer loop
    vertex 6.3459806154264635 3.332226005936 0.2651519999999845
    vertex 6.4153814066903685 3.453765718927623 0.2651519999999845
    vertex 6.348504280563333 3.332226005936 0.2651519999999845
  endloop
endfacet
facet normal 0.0 0.0 -1.0
  outer loop
    vertex 6.348504280563333 3.332226005936 0.2651519999999845
    vertex 6.4153814066903685 3.453765718927623 0.2651519999999845
    vertex 6.498662356207053 2.8616129312126226 0.2651519999999845
  endloop
endfacet
facet normal 0.0 0.0 -1.0
  outer loop
    vertex 6.498662356207053 2.8616129312126226 0.2651519999999845
    vertex 6.4153814066903685 3.453765718927623 0.2651519999999845
    vertex 6.767432693283628 2.444703450601823 0.2651519999999845
  endloop
endfacet
facet normal 0.0 0.0 -1.0
  outer loop
    vertex 6.498662356207053 2.8616129312126226 0.2651519999999845
    vertex 6.767432693283628 2.444703450601823 0.2651519999999845
    vertex 6.536517333260091 2.7485527330808806 0.2651519999999845
  endloop
endfacet
facet normal 0.0 0.0 -1.0
  outer loop
    vertex 6.536517333260091 2.7485527330808806 0.2651519999999845
    vertex 6.767432693283628 2.444703450601823 0.2651519999999845
    vertex 6.6349402735979925 2.444703450601823 0.2651519999999845
  endloop
endfacet
facet normal 0.0 0.0 -1.0
  outer loop
    vertex 6.193298874645874 2.8616129312126226 0.2651519999999845
    vertex 6.536517333260091 2.7485527330808806 0.2651519999999845
    vertex 6.155443897592836 2.7485527330808806 0.2651519999999845
  endloop
endfacet
facet normal 0.0 0.0 -1.0
  outer loop
    vertex 6.536517333260091 2.7485527330808806 0.2651519999999845
    vertex 6.193298874645874 2.8616129312126226 0.2651519999999845
    vertex 6.498662356207053 2.8616129312126226 0.2651519999999845
  endloop
endfacet
facet normal 0.0 0.0 1.0
  outer loop
    vertex 4.2033889142244725 2.444703450601823 0.49257023999998234
    vertex 4.089823983065356 3.2841754217300094 0.49257023999998234
    vertex 4.089823983065356 2.444703450601823 0.49257023999998234
  endloop
endfacet
facet normal 0.0 0.0 1.0
  outer loop
    vertex 3.419790889226571 2.444703450601823 0.49257023999998234
    vertex 3.3062259580674547 3.453765718927623 0.49257023999998234
    vertex 3.3062259580674547 2.444703450601823 0.49257023999998234
  endloop
endfacet
facet normal 0.0 0.0 1.0
  outer loop
    vertex 3.3062259580674547 3.453765718927623 0.49257023999998234
    vertex 3.419790889226571 2.444703450601823 0.49257023999998234
    vertex 3.419790889226571 3.2841754217300094 0.49257023999998234
  endloop
endfacet
facet normal 0.0 0.0 1.0
  outer loop
    vertex 3.3062259580674547 3.453765718927623 0.49257023999998234
    vertex 3.419790889226571 3.2841754217300094 0.49257023999998234
    vertex 3.470264191963956 3.453765718927623 0.49257023999998234
  endloop
endfacet
facet normal 0.0 0.0 1.0
  outer loop
    vertex 3.470264191963956 3.453765718927623 0.49257023999998234
    vertex 3.419790889226571 3.2841754217300094 0.49257023999998234
    vertex 3.42231455436344 3.2841754217300094 0.49257023999998234
  endloop
endfacet
facet normal 0.0 0.0 1.0
  outer loop
    vertex 3.470264191963956 3.453765718927623 0.49257023999998234
    vertex 3.42231455436344 3.2841754217300094 0.49257023999998234
    vertex 3.703703217124361 2.444703450601823 0.49257023999998234
  endloop
endfacet
facet normal 0.0 0.0 1.0
  outer loop
    vertex 3.470264191963956 3.453765718927623 0.49257023999998234
    vertex 3.703703217124361 2.444703450601823 0.49257023999998234
    vertex 3.7541765198617463 2.6058142329395557 0.49257023999998234
  endloop
endfacet
facet normal 0.0 0.0 1.0
  outer loop
    vertex 3.7541765198617463 2.6058142329395557 0.49257023999998234
    vertex 3.703703217124361 2.444703450601823 0.49257023999998234
    vertex 3.805911655167566 2.444703450601823 0.49257023999998234
  endloop
endfacet
facet normal 0.0 0.0 1.0
  outer loop
    vertex 3.7541765198617463 2.6058142329395557 0.49257023999998234
    vertex 3.805911655167566 2.444703450601823 0.49257023999998234
    vertex 4.0393506803279715 3.453765718927623 0.49257023999998234
  endloop
endfacet
facet normal 0.0 0.0 1.0
  outer loop
    vertex 4.0393506803279715 3.453765718927623 0.49257023999998234
    vertex 3.805911655167566 2.444703450601823 0.49257023999998234
    vertex 4.087300317928487 3.2841754217300094 0.49257023999998234
  endloop
endfacet
facet normal 0.0 0.0 1.0
  outer loop
    vertex 4.0393506803279715 3.453765718927623 0.49257023999998234
    vertex 4.087300317928487 3.2841754217300094 0.49257023999998234
    vertex 4.2033889142244725 3.453765718927623 0.49257023999998234
  endloop
endfacet
facet normal 0.0 0.0 1.0
  outer loop
    vertex 4.2033889142244725 3.453765718927623 0.49257023999998234
    vertex 4.087300317928487 3.2841754217300094 0.49257023999998234
    vertex 4.089823983065356 3.2841754217300094 0.49257023999998234
  endloop
endfacet
facet normal 0.0 0.0 1.0
  outer loop
    vertex 4.2033889142244725 3.453765718927623 0.49257023999998234
    vertex 4.089823983065356 3.2841754217300094 0.49257023999998234
    vertex 4.2033889142244725 2.444703450601823 0.49257023999998234
  endloop
endfacet
facet normal -1.0 0.0 0.0
  outer loop
    vertex 3.3062259580674547 3.453765718927623 0.49257023999998234
    vertex 3.3062259580674547 2.444703450601823 0.2651519999999845
    vertex 3.3062259580674547 2.444703450601823 0.49257023999998234
  endloop
endfacet
facet normal -1.0 0.0 0.0
  outer loop
    vertex 3.3062259580674547 2.444703450601823 0.2651519999999845
    vertex 3.3062259580674547 3.453765718927623 0.49257023999998234
    vertex 3.3062259580674547 3.453765718927623 0.2651519999999845
  endloop
endfacet
facet normal 0.0 1.0 0.0
  outer loop
    vertex 3.3062259580674547 3.453765718927623 0.49257023999998234
    vertex 3.470264191963956 3.453765718927623 0.2651519999999845
    vertex 3.3062259580674547 3.453765718927623 0.2651519999999845
  endloop
endfacet
facet normal 0.0 1.0 0.0
  outer loop
    vertex 3.470264191963956 3.453765718927623 0.2651519999999845
    vertex 3.3062259580674547 3.453765718927623 0.49257023999998234
    vertex 3.470264191963956 3.453765718927623 0.49257023999998234
  endloop
endfacet
facet normal 0.948259118027322 0.31749747255379085 0.0
  outer loop
    vertex 3.470264191963956 3.453765718927623 0.2651519999999845
    vertex 3.7541765198617463 2.6058142329395557 0.49257023999998234
    vertex 3.7541765198617463 2.6058142329395557 0.2651519999999845
  endloop
endfacet
facet normal 0.948259118027322 0.31749747255379085 0.0
  outer loop
    vertex 3.7541765198617463 2.6058142329395557 0.49257023999998234
    vertex 3.470264191963956 3.453765718927623 0.2651519999999845
    vertex 3.470264191963956 3.453765718927623 0.49257023999998234
  endloop
endfacet
facet normal -0.9478336208389859 0.3187654736750161 0.0
  outer loop
    vertex 4.0393506803279715 3.453765718927623 0.49257023999998234
    vertex 3.7541765198617463 2.6058142329395557 0.2651519999999845
    vertex 3.7541765198617463 2.6058142329395557 0.49257023999998234
  endloop
endfacet
facet normal -0.9478336208389859 0.3187654736750161 0.0
  outer loop
    vertex 3.7541765198617463 2.6058142329395557 0.2651519999999845
    vertex 4.0393506803279715 3.453765718927623 0.49257023999998234
    vertex 4.0393506803279715 3.453765718927623 0.2651519999999845
  endloop
endfacet
facet normal 0.0 1.0 0.0
  outer loop
    vertex 4.0393506803279715 3.453765718927623 0.49257023999998234
    vertex 4.2033889142244725 3.453765718927623 0.2651519999999845
    vertex 4.0393506803279715 3.453765718927623 0.2651519999999845
  endloop
endfacet
facet normal 0.0 1.0 0.0
  outer loop
    vertex 4.2033889142244725 3.453765718927623 0.2651519999999845
    vertex 4.0393506803279715 3.453765718927623 0.49257023999998234
    vertex 4.2033889142244725 3.453765718927623 0.49257023999998234
  endloop
endfacet
facet normal 1.0 0.0 0.0
  outer loop
    vertex 4.2033889142244725 3.453765718927623 0.2651519999999845
    vertex 4.2033889142244725 2.444703450601823 0.49257023999998234
    vertex 4.2033889142244725 2.444703450601823 0.2651519999999845
  endloop
endfacet
facet normal 1.0 0.0 0.0
  outer loop
    vertex 4.2033889142244725 2.444703450601823 0.49257023999998234
    vertex 4.2033889142244725 3.453765718927623 0.2651519999999845
    vertex 4.2033889142244725 3.453765718927623 0.49257023999998234
  endloop
endfacet
facet normal 0.0 -1.0 0.0
  outer loop
    vertex 4.2033889142244725 2.444703450601823 0.49257023999998234
    vertex 4.089823983065356 2.444703450601823 0.2651519999999845
    vertex 4.2033889142244725 2.444703450601823 0.2651519999999845
  endloop
endfacet
facet normal 0.0 -1.0 0.0
  outer loop
    vertex 4.089823983065356 2.444703450601823 0.2651519999999845
    vertex 4.2033889142244725 2.444703450601823 0.49257023999998234
    vertex 4.089823983065356 2.444703450601823 0.49257023999998234
  endloop
endfacet
facet normal -1.0 0.0 0.0
  outer loop
    vertex 4.089823983065356 3.2841754217300094 0.49257023999998234
    vertex 4.089823983065356 2.444703450601823 0.2651519999999845
    vertex 4.089823983065356 2.444703450601823 0.49257023999998234
  endloop
endfacet
facet normal -1.0 0.0 0.0
  outer loop
    vertex 4.089823983065356 2.444703450601823 0.2651519999999845
    vertex 4.089823983065356 3.2841754217300094 0.49257023999998234
    vertex 4.089823983065356 3.2841754217300094 0.2651519999999845
  endloop
endfacet
facet normal 0.0 -1.0 0.0
  outer loop
    vertex 4.089823983065356 3.2841754217300094 0.49257023999998234
    vertex 4.087300317928487 3.2841754217300094 0.2651519999999845
    vertex 4.089823983065356 3.2841754217300094 0.2651519999999845
  endloop
endfacet
facet normal 0.0 -1.0 0.0
  outer loop
    vertex 4.087300317928487 3.2841754217300094 0.2651519999999845
    vertex 4.089823983065356 3.2841754217300094 0.49257023999998234
    vertex 4.087300317928487 3.2841754217300094 0.49257023999998234
  endloop
endfacet
facet normal 0.9481517933043594 -0.317817835959103 0.0
  outer loop
    vertex 4.087300317928487 3.2841754217300094 0.2651519999999845
    vertex 3.805911655167566 2.444703450601823 0.49257023999998234
    vertex 3.805911655167566 2.444703450601823 0.2651519999999845
  endloop
endfacet
facet normal 0.9481517933043594 -0.317817835959103 0.0
  outer loop
    vertex 3.805911655167566 2.444703450601823 0.49257023999998234
    vertex 4.087300317928487 3.2841754217300094 0.2651519999999845
    vertex 4.087300317928487 3.2841754217300094 0.49257023999998234
  endloop
endfacet
facet normal 0.0 -1.0 0.0
  outer loop
    vertex 3.805911655167566 2.444703450601823 0.49257023999998234
    vertex 3.703703217124361 2.444703450601823 0.2651519999999845
    vertex 3.805911655167566 2.444703450601823 0.2651519999999845
  endloop
endfacet
facet normal 0.0 -1.0 0.0
  outer loop
    vertex 3.703703217124361 2.444703450601823 0.2651519999999845
    vertex 3.805911655167566 2.444703450601823 0.49257023999998234
    vertex 3.703703217124361 2.444703450601823 0.49257023999998234
  endloop
endfacet
facet normal -0.9481517933043595 -0.3178178359591032 0.0
  outer loop
    vertex 3.42231455436344 3.2841754217300094 0.49257023999998234
    vertex 3.703703217124361 2.444703450601823 0.2651519999999845
    vertex 3.703703217124361 2.444703450601823 0.49257023999998234
  endloop
endfacet
facet normal -0.9481517933043595 -0.3178178359591032 0.0
  outer loop
    vertex 3.703703217124361 2.444703450601823 0.2651519999999845
    vertex 3.42231455436344 3.2841754217300094 0.49257023999998234
    vertex 3.42231455436344 3.2841754217300094 0.2651519999999845
  endloop
endfacet
facet normal 0.0 -1.0 0.0
  outer loop
    vertex 3.42231455436344 3.2841754217300094 0.49257023999998234
    vertex 3.419790889226571 3.2841754217300094 0.2651519999999845
    vertex 3.42231455436344 3.2841754217300094 0.2651519999999845
  endloop
endfacet
facet normal 0.0 -1.0 0.0
  outer loop
    vertex 3.419790889226571 3.2841754217300094 0.2651519999999845
    vertex 3.42231455436344 3.2841754217300094 0.49257023999998234
    vertex 3.419790889226571 3.2841754217300094 0.49257023999998234
  endloop
endfacet
facet normal 1.0 0.0 0.0
  outer loop
    vertex 3.419790889226571 3.2841754217300094 0.2651519999999845
    vertex 3.419790889226571 2.444703450601823 0.49257023999998234
    vertex 3.419790889226571 2.444703450601823 0.2651519999999845
  endloop
endfacet
facet normal 1.0 0.0 0.0
  outer loop
    vertex 3.419790889226571 2.444703450601823 0.49257023999998234
    vertex 3.419790889226571 3.2841754217300094 0.2651519999999845
    vertex 3.419790889226571 3.2841754217300094 0.49257023999998234
  endloop
endfacet
facet normal 0.0 -1.0 0.0
  outer loop
    vertex 3.419790889226571 2.444703450601823 0.49257023999998234
    vertex 3.3062259580674547 2.444703450601823 0.2651519999999845
    vertex 3.419790889226571 2.444703450601823 0.2651519999999845
  endloop
endfacet
facet normal 0.0 -1.0 0.0
  outer loop
    vertex 3.3062259580674547 2.444703450601823 0.2651519999999845
    vertex 3.419790889226571 2.444703450601823 0.49257023999998234
    vertex 3.3062259580674547 2.444703450601823 0.49257023999998234
  endloop
endfacet
facet normal 0.0 0.0 1.0
  outer loop
    vertex 4.901182324568819 2.7485527330808806 0.49257023999998234
    vertex 4.557963865954601 2.8616129312126226 0.49257023999998234
    vertex 4.520108888901563 2.7485527330808806 0.49257023999998234
  endloop
endfacet
facet normal 0.0 0.0 1.0
  outer loop
    vertex 4.557963865954601 2.8616129312126226 0.49257023999998234
    vertex 4.901182324568819 2.7485527330808806 0.49257023999998234
    vertex 4.8633273475157806 2.8616129312126226 0.49257023999998234
  endloop
endfacet
facet normal 0.0 0.0 1.0
  outer loop
    vertex 4.419162283426793 2.444703450601823 0.49257023999998234
    vertex 4.64755397831346 3.453765718927623 0.49257023999998234
    vertex 4.296764524288634 2.444703450601823 0.49257023999998234
  endloop
endfacet
facet normal 0.0 0.0 1.0
  outer loop
    vertex 4.64755397831346 3.453765718927623 0.49257023999998234
    vertex 4.419162283426793 2.444703450601823 0.49257023999998234
    vertex 4.520108888901563 2.7485527330808806 0.49257023999998234
  endloop
endfacet
facet normal 0.0 0.0 1.0
  outer loop
    vertex 4.64755397831346 3.453765718927623 0.49257023999998234
    vertex 4.520108888901563 2.7485527330808806 0.49257023999998234
    vertex 4.557963865954601 2.8616129312126226 0.49257023999998234
  endloop
endfacet
facet normal 0.0 0.0 1.0
  outer loop
    vertex 4.64755397831346 3.453765718927623 0.49257023999998234
    vertex 4.557963865954601 2.8616129312126226 0.49257023999998234
    vertex 4.710645606735191 3.332226005936 0.49257023999998234
  endloop
endfacet
facet normal 0.0 0.0 1.0
  outer loop
    vertex 4.64755397831346 3.453765718927623 0.49257023999998234
    vertex 4.710645606735191 3.332226005936 0.49257023999998234
    vertex 4.7800463979990955 3.453765718927623 0.49257023999998234
  endloop
endfacet
facet normal 0.0 0.0 1.0
  outer loop
    vertex 4.7800463979990955 3.453765718927623 0.49257023999998234
    vertex 4.710645606735191 3.332226005936 0.49257023999998234
    vertex 4.713169271872061 3.332226005936 0.49257023999998234
  endloop
endfacet
facet normal 0.0 0.0 1.0
  outer loop
    vertex 4.7800463979990955 3.453765718927623 0.49257023999998234
    vertex 4.713169271872061 3.332226005936 0.49257023999998234
    vertex 4.8633273475157806 2.8616129312126226 0.49257023999998234
  endloop
endfacet
facet normal 0.0 0.0 1.0
  outer loop
    vertex 4.7800463979990955 3.453765718927623 0.49257023999998234
    vertex 4.8633273475157806 2.8616129312126226 0.49257023999998234
    vertex 5.132097684592355 2.444703450601823 0.49257023999998234
  endloop
endfacet
facet normal 0.0 0.0 1.0
  outer loop
    vertex 5.132097684592355 2.444703450601823 0.49257023999998234
    vertex 4.8633273475157806 2.8616129312126226 0.49257023999998234
    vertex 4.901182324568819 2.7485527330808806 0.49257023999998234
  endloop
endfacet
facet normal 0.0 0.0 1.0
  outer loop
    vertex 5.132097684592355 2.444703450601823 0.49257023999998234
    vertex 4.901182324568819 2.7485527330808806 0.49257023999998234
    vertex 4.9996052649067195 2.444703450601823 0.49257023999998234
  endloop
endfacet
facet normal -0.9445515990343532 0.32836302587478755 0.0
  outer loop
    vertex 4.64755397831346 3.453765718927623 0.49257023999998234
    vertex 4.296764524288634 2.444703450601823 0.2651519999999845
    vertex 4.296764524288634 2.444703450601823 0.49257023999998234
  endloop
endfacet
facet normal -0.9445515990343532 0.32836302587478755 0.0
  outer loop
    vertex 4.296764524288634 2.444703450601823 0.2651519999999845
    vertex 4.64755397831346 3.453765718927623 0.49257023999998234
    vertex 4.64755397831346 3.453765718927623 0.2651519999999845
  endloop
endfacet
facet normal 0.0 1.0 0.0
  outer loop
    vertex 4.64755397831346 3.453765718927623 0.49257023999998234
    vertex 4.7800463979990955 3.453765718927623 0.2651519999999845
    vertex 4.64755397831346 3.453765718927623 0.2651519999999845
  endloop
endfacet
facet normal 0.0 1.0 0.0
  outer loop
    vertex 4.7800463979990955 3.453765718927623 0.2651519999999845
    vertex 4.64755397831346 3.453765718927623 0.49257023999998234
    vertex 4.7800463979990955 3.453765718927623 0.49257023999998234
  endloop
endfacet
facet normal 0.9441848096418799 0.32941621885014566 0.0
  outer loop
    vertex 4.7800463979990955 3.453765718927623 0.2651519999999845
    vertex 5.132097684592355 2.444703450601823 0.49257023999998234
    vertex 5.132097684592355 2.444703450601823 0.2651519999999845
  endloop
endfacet
facet normal 0.9441848096418799 0.32941621885014566 0.0
  outer loop
    vertex 5.132097684592355 2.444703450601823 0.49257023999998234
    vertex 4.7800463979990955 3.453765718927623 0.2651519999999845
    vertex 4.7800463979990955 3.453765718927623 0.49257023999998234
  endloop
endfacet
facet normal 0.0 -1.0 0.0
  outer loop
    vertex 5.132097684592355 2.444703450601823 0.49257023999998234
    vertex 4.9996052649067195 2.444703450601823 0.2651519999999845
    vertex 5.132097684592355 2.444703450601823 0.2651519999999845
  endloop
endfacet
facet normal 0.0 -1.0 0.0
  outer loop
    vertex 4.9996052649067195 2.444703450601823 0.2651519999999845
    vertex 5.132097684592355 2.444703450601823 0.49257023999998234
    vertex 4.9996052649067195 2.444703450601823 0.49257023999998234
  endloop
endfacet
facet normal -0.9513355587289707 -0.30815686703014905 0.0
  outer loop
    vertex 4.901182324568819 2.7485527330808806 0.49257023999998234
    vertex 4.9996052649067195 2.444703450601823 0.2651519999999845
    vertex 4.9996052649067195 2.444703450601823 0.49257023999998234
  endloop
endfacet
facet normal -0.9513355587289707 -0.30815686703014905 0.0
  outer loop
    vertex 4.9996052649067195 2.444703450601823 0.2651519999999845
    vertex 4.901182324568819 2.7485527330808806 0.49257023999998234
    vertex 4.901182324568819 2.7485527330808806 0.2651519999999845
  endloop
endfacet
facet normal 0.0 -1.0 0.0
  outer loop
    vertex 4.901182324568819 2.7485527330808806 0.49257023999998234
    vertex 4.520108888901563 2.7485527330808806 0.2651519999999845
    vertex 4.901182324568819 2.7485527330808806 0.2651519999999845
  endloop
endfacet
facet normal 0.0 -1.0 0.0
  outer loop
    vertex 4.520108888901563 2.7485527330808806 0.2651519999999845
    vertex 4.901182324568819 2.7485527330808806 0.49257023999998234
    vertex 4.520108888901563 2.7485527330808806 0.49257023999998234
  endloop
endfacet
facet normal 0.9489981083060667 -0.315281763556833 0.0
  outer loop
    vertex 4.520108888901563 2.7485527330808806 0.2651519999999845
    vertex 4.419162283426793 2.444703450601823 0.49257023999998234
    vertex 4.419162283426793 2.444703450601823 0.2651519999999845
  endloop
endfacet
facet normal 0.9489981083060667 -0.315281763556833 0.0
  outer loop
    vertex 4.419162283426793 2.444703450601823 0.49257023999998234
    vertex 4.520108888901563 2.7485527330808806 0.2651519999999845
    vertex 4.520108888901563 2.7485527330808806 0.49257023999998234
  endloop
endfacet
facet normal 0.0 -1.0 0.0
  outer loop
    vertex 4.419162283426793 2.444703450601823 0.49257023999998234
    vertex 4.296764524288634 2.444703450601823 0.2651519999999845
    vertex 4.419162283426793 2.444703450601823 0.2651519999999845
  endloop
endfacet
facet normal 0.0 -1.0 0.0
  outer loop
    vertex 4.296764524288634 2.444703450601823 0.2651519999999845
    vertex 4.419162283426793 2.444703450601823 0.49257023999998234
    vertex 4.296764524288634 2.444703450601823 0.49257023999998234
  endloop
endfacet
facet normal 0.951192877326057 -0.30859700277899144 0.0
  outer loop
    vertex 4.710645606735191 3.332226005936 0.2651519999999845
    vertex 4.557963865954601 2.8616129312126226 0.49257023999998234
    vertex 4.557963865954601 2.8616129312126226 0.2651519999999845
  endloop
endfacet
facet normal 0.951192877326057 -0.30859700277899144 0.0
  outer loop
    vertex 4.557963865954601 2.8616129312126226 0.49257023999998234
    vertex 4.710645606735191 3.332226005936 0.2651519999999845
    vertex 4.710645606735191 3.332226005936 0.49257023999998234
  endloop
endfacet
facet normal 0.0 1.0 0.0
  outer loop
    vertex 4.557963865954601 2.8616129312126226 0.49257023999998234
    vertex 4.8633273475157806 2.8616129312126226 0.2651519999999845
    vertex 4.557963865954601 2.8616129312126226 0.2651519999999845
  endloop
endfacet
facet normal 0.0 1.0 0.0
  outer loop
    vertex 4.8633273475157806 2.8616129312126226 0.2651519999999845
    vertex 4.557963865954601 2.8616129312126226 0.49257023999998234
    vertex 4.8633273475157806 2.8616129312126226 0.49257023999998234
  endloop
endfacet
facet normal -0.952681247319949 -0.3039711187019354 0.0
  outer loop
    vertex 4.713169271872061 3.332226005936 0.49257023999998234
    vertex 4.8633273475157806 2.8616129312126226 0.2651519999999845
    vertex 4.8633273475157806 2.8616129312126226 0.49257023999998234
  endloop
endfacet
facet normal -0.952681247319949 -0.3039711187019354 0.0
  outer loop
    vertex 4.8633273475157806 2.8616129312126226 0.2651519999999845
    vertex 4.713169271872061 3.332226005936 0.49257023999998234
    vertex 4.713169271872061 3.332226005936 0.2651519999999845
  endloop
endfacet
facet normal 0.0 -1.0 0.0
  outer loop
    vertex 4.713169271872061 3.332226005936 0.49257023999998234
    vertex 4.710645606735191 3.332226005936 0.2651519999999845
    vertex 4.713169271872061 3.332226005936 0.2651519999999845
  endloop
endfacet
facet normal 0.0 -1.0 0.0
  outer loop
    vertex 4.710645606735191 3.332226005936 0.2651519999999845
    vertex 4.713169271872061 3.332226005936 0.49257023999998234
    vertex 4.710645606735191 3.332226005936 0.49257023999998234
  endloop
endfacet
facet normal 0.0 0.0 1.0
  outer loop
    vertex 5.592666572070993 2.444703450601823 0.49257023999998234
    vertex 5.472792478069703 2.8573731737826824 0.49257023999998234
    vertex 5.472792478069703 2.444703450601823 0.49257023999998234
  endloop
endfacet
facet normal 0.0 0.0 1.0
  outer loop
    vertex 5.472792478069703 2.8573731737826824 0.49257023999998234
    vertex 5.592666572070993 2.444703450601823 0.49257023999998234
    vertex 5.53714593905987 2.973259876867718 0.49257023999998234
  endloop
endfacet
facet normal 0.0 0.0 1.0
  outer loop
    vertex 5.53714593905987 2.973259876867718 0.49257023999998234
    vertex 5.592666572070993 2.444703450601823 0.49257023999998234
    vertex 5.592666572070993 2.8573731737826824 0.49257023999998234
  endloop
endfacet
facet normal 0.0 0.0 1.0
  outer loop
    vertex 5.53714593905987 2.973259876867718 0.49257023999998234
    vertex 5.592666572070993 2.8573731737826824 0.49257023999998234
    vertex 5.800868945862707 3.453765718927623 0.49257023999998234
  endloop
endfacet
facet normal 0.0 0.0 1.0
  outer loop
    vertex 5.800868945862707 3.453765718927623 0.49257023999998234
    vertex 5.592666572070993 2.8573731737826824 0.49257023999998234
    vertex 5.937146863253645 3.453765718927623 0.49257023999998234
  endloop
endfacet
facet normal 0.0 0.0 1.0
  outer loop
    vertex 5.472792478069703 2.8573731737826824 0.49257023999998234
    vertex 5.26711376941486 3.453765718927623 0.49257023999998234
    vertex 5.124526689181748 3.453765718927623 0.49257023999998234
  endloop
endfacet
facet normal 0.0 0.0 1.0
  outer loop
    vertex 5.26711376941486 3.453765718927623 0.49257023999998234
    vertex 5.472792478069703 2.8573731737826824 0.49257023999998234
    vertex 5.53714593905987 2.973259876867718 0.49257023999998234
  endloop
endfacet
facet normal 0.865929261246955 -0.5001664867984486 0.0
  outer loop
    vertex 5.937146863253645 3.453765718927623 0.2651519999999845
    vertex 5.592666572070993 2.8573731737826824 0.49257023999998234
    vertex 5.592666572070993 2.8573731737826824 0.2651519999999845
  endloop
endfacet
facet normal 0.865929261246955 -0.5001664867984486 0.0
  outer loop
    vertex 5.592666572070993 2.8573731737826824 0.49257023999998234
    vertex 5.937146863253645 3.453765718927623 0.2651519999999845
    vertex 5.937146863253645 3.453765718927623 0.49257023999998234
  endloop
endfacet
facet normal 1.0 0.0 0.0
  outer loop
    vertex 5.592666572070993 2.8573731737826824 0.2651519999999845
    vertex 5.592666572070993 2.444703450601823 0.49257023999998234
    vertex 5.592666572070993 2.444703450601823 0.2651519999999845
  endloop
endfacet
facet normal 1.0 0.0 0.0
  outer loop
    vertex 5.592666572070993 2.444703450601823 0.49257023999998234
    vertex 5.592666572070993 2.8573731737826824 0.2651519999999845
    vertex 5.592666572070993 2.8573731737826824 0.49257023999998234
  endloop
endfacet
facet normal 0.0 -1.0 0.0
  outer loop
    vertex 5.592666572070993 2.444703450601823 0.49257023999998234
    vertex 5.472792478069703 2.444703450601823 0.2651519999999845
    vertex 5.592666572070993 2.444703450601823 0.2651519999999845
  endloop
endfacet
facet normal 0.0 -1.0 0.0
  outer loop
    vertex 5.472792478069703 2.444703450601823 0.2651519999999845
    vertex 5.592666572070993 2.444703450601823 0.49257023999998234
    vertex 5.472792478069703 2.444703450601823 0.49257023999998234
  endloop
endfacet
facet normal -1.0 0.0 0.0
  outer loop
    vertex 5.472792478069703 2.8573731737826824 0.49257023999998234
    vertex 5.472792478069703 2.444703450601823 0.2651519999999845
    vertex 5.472792478069703 2.444703450601823 0.49257023999998234
  endloop
endfacet
facet normal -1.0 0.0 0.0
  outer loop
    vertex 5.472792478069703 2.444703450601823 0.2651519999999845
    vertex 5.472792478069703 2.8573731737826824 0.49257023999998234
    vertex 5.472792478069703 2.8573731737826824 0.2651519999999845
  endloop
endfacet
facet normal -0.8635455494692447 -0.5042708438843758 0.0
  outer loop
    vertex 5.124526689181748 3.453765718927623 0.49257023999998234
    vertex 5.472792478069703 2.8573731737826824 0.2651519999999845
    vertex 5.472792478069703 2.8573731737826824 0.49257023999998234
  endloop
endfacet
facet normal -0.8635455494692447 -0.5042708438843758 0.0
  outer loop
    vertex 5.472792478069703 2.8573731737826824 0.2651519999999845
    vertex 5.124526689181748 3.453765718927623 0.49257023999998234
    vertex 5.124526689181748 3.453765718927623 0.2651519999999845
  endloop
endfacet
facet normal 0.0 1.0 0.0
  outer loop
    vertex 5.124526689181748 3.453765718927623 0.49257023999998234
    vertex 5.26711376941486 3.453765718927623 0.2651519999999845
    vertex 5.124526689181748 3.453765718927623 0.2651519999999845
  endloop
endfacet
facet normal 0.0 1.0 0.0
  outer loop
    vertex 5.26711376941486 3.453765718927623 0.2651519999999845
    vertex 5.124526689181748 3.453765718927623 0.49257023999998234
    vertex 5.26711376941486 3.453765718927623 0.49257023999998234
  endloop
endfacet
facet normal 0.8717711124402329 0.48991338776840826 0.0
  outer loop
    vertex 5.26711376941486 3.453765718927623 0.2651519999999845
    vertex 5.53714593905987 2.973259876867718 0.49257023999998234
    vertex 5.53714593905987 2.973259876867718 0.2651519999999845
  endloop
endfacet
facet normal 0.8717711124402329 0.48991338776840826 0.0
  outer loop
    vertex 5.53714593905987 2.973259876867718 0.49257023999998234
    vertex 5.26711376941486 3.453765718927623 0.2651519999999845
    vertex 5.26711376941486 3.453765718927623 0.49257023999998234
  endloop
endfacet
facet normal -0.8766432875507195 0.48114087998450766 0.0
  outer loop
    vertex 5.800868945862707 3.453765718927623 0.49257023999998234
    vertex 5.53714593905987 2.973259876867718 0.2651519999999845
    vertex 5.53714593905987 2.973259876867718 0.49257023999998234
  endloop
endfacet
facet normal -0.8766432875507195 0.48114087998450766 0.0
  outer loop
    vertex 5.53714593905987 2.973259876867718 0.2651519999999845
    vertex 5.800868945862707 3.453765718927623 0.49257023999998234
    vertex 5.800868945862707 3.453765718927623 0.2651519999999845
  endloop
endfacet
facet normal 0.0 1.0 0.0
  outer loop
    vertex 5.800868945862707 3.453765718927623 0.49257023999998234
    vertex 5.937146863253645 3.453765718927623 0.2651519999999845
    vertex 5.800868945862707 3.453765718927623 0.2651519999999845
  endloop
endfacet
facet normal 0.0 1.0 0.0
  outer loop
    vertex 5.937146863253645 3.453765718927623 0.2651519999999845
    vertex 5.800868945862707 3.453765718927623 0.49257023999998234
    vertex 5.937146863253645 3.453765718927623 0.49257023999998234
  endloop
endfacet
facet normal 0.0 0.0 1.0
  outer loop
    vertex 6.536517333260091 2.7485527330808806 0.49257023999998234
    vertex 6.193298874645874 2.8616129312126226 0.49257023999998234
    vertex 6.155443897592836 2.7485527330808806 0.49257023999998234
  endloop
endfacet
facet normal 0.0 0.0 1.0
  outer loop
    vertex 6.193298874645874 2.8616129312126226 0.49257023999998234
    vertex 6.536517333260091 2.7485527330808806 0.49257023999998234
    vertex 6.498662356207053 2.8616129312126226 0.49257023999998234
  endloop
endfacet
facet normal 0.0 0.0 1.0
  outer loop
    vertex 6.054497292118065 2.444703450601823 0.49257023999998234
    vertex 6.282888987004732 3.453765718927623 0.49257023999998234
    vertex 5.932099532979907 2.444703450601823 0.49257023999998234
  endloop
endfacet
facet normal 0.0 0.0 1.0
  outer loop
    vertex 6.282888987004732 3.453765718927623 0.49257023999998234
    vertex 6.054497292118065 2.444703450601823 0.49257023999998234
    vertex 6.155443897592836 2.7485527330808806 0.49257023999998234
  endloop
endfacet
facet normal 0.0 0.0 1.0
  outer loop
    vertex 6.282888987004732 3.453765718927623 0.49257023999998234
    vertex 6.155443897592836 2.7485527330808806 0.49257023999998234
    vertex 6.193298874645874 2.8616129312126226 0.49257023999998234
  endloop
endfacet
facet normal 0.0 0.0 1.0
  outer loop
    vertex 6.282888987004732 3.453765718927623 0.49257023999998234
    vertex 6.193298874645874 2.8616129312126226 0.49257023999998234
    vertex 6.3459806154264635 3.332226005936 0.49257023999998234
  endloop
endfacet
facet normal 0.0 0.0 1.0
  outer loop
    vertex 6.282888987004732 3.453765718927623 0.49257023999998234
    vertex 6.3459806154264635 3.332226005936 0.49257023999998234
    vertex 6.4153814066903685 3.453765718927623 0.49257023999998234
  endloop
endfacet
facet normal 0.0 0.0 1.0
  outer loop
    vertex 6.4153814066903685 3.453765718927623 0.49257023999998234
    vertex 6.3459806154264635 3.332226005936 0.49257023999998234
    vertex 6.348504280563333 3.332226005936 0.49257023999998234
  endloop
endfacet
facet normal 0.0 0.0 1.0
  outer loop
    vertex 6.4153814066903685 3.453765718927623 0.49257023999998234
    vertex 6.348504280563333 3.332226005936 0.49257023999998234
    vertex 6.498662356207053 2.8616129312126226 0.49257023999998234
  endloop
endfacet
facet normal 0.0 0.0 1.0
  outer loop
    vertex 6.4153814066903685 3.453765718927623 0.49257023999998234
    vertex 6.498662356207053 2.8616129312126226 0.49257023999998234
    vertex 6.767432693283628 2.444703450601823 0.49257023999998234
  endloop
endfacet
facet normal 0.0 0.0 1.0
  outer loop
    vertex 6.767432693283628 2.444703450601823 0.49257023999998234
    vertex 6.498662356207053 2.8616129312126226 0.49257023999998234
    vertex 6.536517333260091 2.7485527330808806 0.49257023999998234
  endloop
endfacet
facet normal 0.0 0.0 1.0
  outer loop
    vertex 6.767432693283628 2.444703450601823 0.49257023999998234
    vertex 6.536517333260091 2.7485527330808806 0.49257023999998234
    vertex 6.6349402735979925 2.444703450601823 0.49257023999998234
  endloop
endfacet
facet normal -0.9445515990343534 0.32836302587478716 0.0
  outer loop
    vertex 6.282888987004732 3.453765718927623 0.49257023999998234
    vertex 5.932099532979907 2.444703450601823 0.2651519999999845
    vertex 5.932099532979907 2.444703450601823 0.49257023999998234
  endloop
endfacet
facet normal -0.9445515990343534 0.32836302587478716 0.0
  outer loop
    vertex 5.932099532979907 2.444703450601823 0.2651519999999845
    vertex 6.282888987004732 3.453765718927623 0.49257023999998234
    vertex 6.282888987004732 3.453765718927623 0.2651519999999845
  endloop
endfacet
facet normal 0.0 1.0 0.0
  outer loop
    vertex 6.282888987004732 3.453765718927623 0.49257023999998234
    vertex 6.4153814066903685 3.453765718927623 0.2651519999999845
    vertex 6.282888987004732 3.453765718927623 0.2651519999999845
  endloop
endfacet
facet normal 0.0 1.0 0.0
  outer loop
    vertex 6.4153814066903685 3.453765718927623 0.2651519999999845
    vertex 6.282888987004732 3.453765718927623 0.49257023999998234
    vertex 6.4153814066903685 3.453765718927623 0.49257023999998234
  endloop
endfacet
facet normal 0.9441848096418799 0.32941621885014566 0.0
  outer loop
    vertex 6.4153814066903685 3.453765718927623 0.2651519999999845
    vertex 6.767432693283628 2.444703450601823 0.49257023999998234
    vertex 6.767432693283628 2.444703450601823 0.2651519999999845
  endloop
endfacet
facet normal 0.9441848096418799 0.32941621885014566 0.0
  outer loop
    vertex 6.767432693283628 2.444703450601823 0.49257023999998234
    vertex 6.4153814066903685 3.453765718927623 0.2651519999999845
    vertex 6.4153814066903685 3.453765718927623 0.49257023999998234
  endloop
endfacet
facet normal 0.0 -1.0 0.0
  outer loop
    vertex 6.767432693283628 2.444703450601823 0.49257023999998234
    vertex 6.6349402735979925 2.444703450601823 0.2651519999999845
    vertex 6.767432693283628 2.444703450601823 0.2651519999999845
  endloop
endfacet
facet normal 0.0 -1.0 0.0
  outer loop
    vertex 6.6349402735979925 2.444703450601823 0.2651519999999845
    vertex 6.767432693283628 2.444703450601823 0.49257023999998234
    vertex 6.6349402735979925 2.444703450601823 0.49257023999998234
  endloop
endfacet
facet normal -0.951335558728971 -0.30815686703014855 0.0
  outer loop
    vertex 6.536517333260091 2.7485527330808806 0.49257023999998234
    vertex 6.6349402735979925 2.444703450601823 0.2651519999999845
    vertex 6.6349402735979925 2.444703450601823 0.49257023999998234
  endloop
endfacet
facet normal -0.951335558728971 -0.30815686703014855 0.0
  outer loop
    vertex 6.6349402735979925 2.444703450601823 0.2651519999999845
    vertex 6.536517333260091 2.7485527330808806 0.49257023999998234
    vertex 6.536517333260091 2.7485527330808806 0.2651519999999845
  endloop
endfacet
facet normal 0.0 -1.0 0.0
  outer loop
    vertex 6.536517333260091 2.7485527330808806 0.49257023999998234
    vertex 6.155443897592836 2.7485527330808806 0.2651519999999845
    vertex 6.536517333260091 2.7485527330808806 0.2651519999999845
  endloop
endfacet
facet normal 0.0 -1.0 0.0
  outer loop
    vertex 6.155443897592836 2.7485527330808806 0.2651519999999845
    vertex 6.536517333260091 2.7485527330808806 0.49257023999998234
    vertex 6.155443897592836 2.7485527330808806 0.49257023999998234
  endloop
endfacet
facet normal 0.9489981083060666 -0.3152817635568336 0.0
  outer loop
    vertex 6.155443897592836 2.7485527330808806 0.2651519999999845
    vertex 6.054497292118065 2.444703450601823 0.49257023999998234
    vertex 6.054497292118065 2.444703450601823 0.2651519999999845
  endloop
endfacet
facet normal 0.9489981083060666 -0.3152817635568336 0.0
  outer loop
    vertex 6.054497292118065 2.444703450601823 0.49257023999998234
    vertex 6.155443897592836 2.7485527330808806 0.2651519999999845
    vertex 6.155443897592836 2.7485527330808806 0.49257023999998234
  endloop
endfacet
facet normal 0.0 -1.0 0.0
  outer loop
    vertex 6.054497292118065 2.444703450601823 0.49257023999998234
    vertex 5.932099532979907 2.444703450601823 0.2651519999999845
    vertex 6.054497292118065 2.444703450601823 0.2651519999999845
  endloop
endfacet
facet normal 0.0 -1.0 0.0
  outer loop
    vertex 5.932099532979907 2.444703450601823 0.2651519999999845
    vertex 6.054497292118065 2.444703450601823 0.49257023999998234
    vertex 5.932099532979907 2.444703450601823 0.49257023999998234
  endloop
endfacet
facet normal 0.9511928773260567 -0.30859700277899227 0.0
  outer loop
    vertex 6.3459806154264635 3.332226005936 0.2651519999999845
    vertex 6.193298874645874 2.8616129312126226 0.49257023999998234
    vertex 6.193298874645874 2.8616129312126226 0.2651519999999845
  endloop
endfacet
facet normal 0.9511928773260567 -0.30859700277899227 0.0
  outer loop
    vertex 6.193298874645874 2.8616129312126226 0.49257023999998234
    vertex 6.3459806154264635 3.332226005936 0.2651519999999845
    vertex 6.3459806154264635 3.332226005936 0.49257023999998234
  endloop
endfacet
facet normal 0.0 1.0 0.0
  outer loop
    vertex 6.193298874645874 2.8616129312126226 0.49257023999998234
    vertex 6.498662356207053 2.8616129312126226 0.2651519999999845
    vertex 6.193298874645874 2.8616129312126226 0.2651519999999845
  endloop
endfacet
facet normal 0.0 1.0 0.0
  outer loop
    vertex 6.498662356207053 2.8616129312126226 0.2651519999999845
    vertex 6.193298874645874 2.8616129312126226 0.49257023999998234
    vertex 6.498662356207053 2.8616129312126226 0.49257023999998234
  endloop
endfacet
facet normal -0.9526812473199487 -0.3039711187019362 0.0
  outer loop
    vertex 6.348504280563333 3.332226005936 0.49257023999998234
    vertex 6.498662356207053 2.8616129312126226 0.2651519999999845
    vertex 6.498662356207053 2.8616129312126226 0.49257023999998234
  endloop
endfacet
facet normal -0.9526812473199487 -0.3039711187019362 0.0
  outer loop
    vertex 6.498662356207053 2.8616129312126226 0.2651519999999845
    vertex 6.348504280563333 3.332226005936 0.49257023999998234
    vertex 6.348504280563333 3.332226005936 0.2651519999999845
  endloop
endfacet
facet normal 0.0 -1.0 0.0
  outer loop
    vertex 6.348504280563333 3.332226005936 0.49257023999998234
    vertex 6.3459806154264635 3.332226005936 0.2651519999999845
    vertex 6.348504280563333 3.332226005936 0.2651519999999845
  endloop
endfacet
facet normal 0.0 -1.0 0.0
  outer loop
    vertex 6.3459806154264635 3.332226005936 0.2651519999999845
    vertex 6.348504280563333 3.332226005936 0.49257023999998234
    vertex 6.3459806154264635 3.332226005936 0.49257023999998234
  endloop
endfacet
facet normal 0.7071067811865468 0.7071067811865482 0.0
  outer loop
    vertex 1.4048448833665177 2.662335067255565 0.5106640000000002
    vertex 1.4801420744821672 2.6045575003935175 0.06919700000000031
    vertex 1.4048448833665177 2.662335067255565 0.06919700000000031
  endloop
endfacet
facet normal 0.49999999999999944 0.8660254037844392 0.0
  outer loop
    vertex 1.4801420744821672 2.6045575003935175 0.06919700000000031
    vertex 1.4048448833665177 2.662335067255565 0.5106640000000002
    vertex 1.4801420744821672 2.6045575003935175 0.5106640000000002
  endloop
endfacet
facet normal 0.49999999999999944 0.8660254037844392 0.0
  outer loop
    vertex 1.4801420744821672 2.6045575003935175 0.5106640000000002
    vertex 1.567827510711379 2.568237003484777 0.06919700000000031
    vertex 1.4801420744821672 2.6045575003935175 0.06919700000000031
  endloop
endfacet
facet normal 0.2588190451025213 0.9659258262890682 0.0
  outer loop
    vertex 1.567827510711379 2.568237003484777 0.06919700000000031
    vertex 1.4801420744821672 2.6045575003935175 0.5106640000000002
    vertex 1.567827510711379 2.568237003484777 0.5106640000000002
  endloop
endfacet
facet normal 0.2588190451025213 0.9659258262890682 0.0
  outer loop
    vertex 1.567827510711379 2.568237003484777 0.5106640000000002
    vertex 1.6619255744821673 2.5558487583712144 0.06919700000000031
    vertex 1.567827510711379 2.568237003484777 0.06919700000000031
  endloop
endfacet
facet normal 0.0 1.0 0.0
  outer loop
    vertex 1.6619255744821673 2.5558487583712144 0.06919700000000031
    vertex 1.567827510711379 2.568237003484777 0.5106640000000002
    vertex 1.6619255744821673 2.5558487583712144 0.5106640000000002
  endloop
endfacet
facet normal 0.0 1.0 0.0
  outer loop
    vertex 1.6619255744821673 2.5558487583712144 0.5106640000000002
    vertex 1.7560236382529555 2.568237003484777 0.06919700000000031
    vertex 1.6619255744821673 2.5558487583712144 0.06919700000000031
  endloop
endfacet
facet normal -0.2588190451025213 0.9659258262890682 0.0
  outer loop
    vertex 1.7560236382529555 2.568237003484777 0.06919700000000031
    vertex 1.6619255744821673 2.5558487583712144 0.5106640000000002
    vertex 1.7560236382529555 2.568237003484777 0.5106640000000002
  endloop
endfacet
facet normal -0.2588190451025213 0.9659258262890682 0.0
  outer loop
    vertex 1.7560236382529555 2.568237003484777 0.5106640000000002
    vertex 1.8437090744821674 2.6045575003935175 0.06919700000000031
    vertex 1.7560236382529555 2.568237003484777 0.06919700000000031
  endloop
endfacet
facet normal -0.49999999999999883 0.8660254037844393 0.0
  outer loop
    vertex 1.8437090744821674 2.6045575003935175 0.06919700000000031
    vertex 1.7560236382529555 2.568237003484777 0.5106640000000002
    vertex 1.8437090744821674 2.6045575003935175 0.5106640000000002
  endloop
endfacet
facet normal -0.49999999999999883 0.8660254037844393 0.0
  outer loop
    vertex 1.8437090744821674 2.6045575003935175 0.5106640000000002
    vertex 1.919006265597817 2.662335067255565 0.06919700000000031
    vertex 1.8437090744821674 2.6045575003935175 0.06919700000000031
  endloop
endfacet
facet normal -0.707106781186548 0.7071067811865471 0.0
  outer loop
    vertex 1.919006265597817 2.662335067255565 0.06919700000000031
    vertex 1.8437090744821674 2.6045575003935175 0.5106640000000002
    vertex 1.919006265597817 2.662335067255565 0.5106640000000002
  endloop
endfacet
facet normal -0.8660254037844397 0.4999999999999983 0.0
  outer loop
    vertex 1.9767838324598643 2.7376322583712147 0.5106640000000002
    vertex 1.919006265597817 2.662335067255565 0.06919700000000031
    vertex 1.919006265597817 2.662335067255565 0.5106640000000002
  endloop
endfacet
facet normal -0.707106781186548 0.7071067811865471 0.0
  outer loop
    vertex 1.919006265597817 2.662335067255565 0.06919700000000031
    vertex 1.9767838324598643 2.7376322583712147 0.5106640000000002
    vertex 1.9767838324598643 2.7376322583712147 0.06919700000000031
  endloop
endfacet
facet normal -0.965925826289068 0.25881904510252146 0.0
  outer loop
    vertex 2.013104329368605 2.8253176946004266 0.5106640000000002
    vertex 1.9767838324598643 2.7376322583712147 0.06919700000000031
    vertex 1.9767838324598643 2.7376322583712147 0.5106640000000002
  endloop
endfacet
facet normal -0.8660254037844397 0.4999999999999983 0.0
  outer loop
    vertex 1.9767838324598643 2.7376322583712147 0.06919700000000031
    vertex 2.013104329368605 2.8253176946004266 0.5106640000000002
    vertex 2.013104329368605 2.8253176946004266 0.06919700000000031
  endloop
endfacet
facet normal -1.0 3.207999562432886e-16 0.0
  outer loop
    vertex 2.0254925744821675 2.9194157583712146 0.5106640000000002
    vertex 2.013104329368605 2.8253176946004266 0.06919700000000031
    vertex 2.013104329368605 2.8253176946004266 0.5106640000000002
  endloop
endfacet
facet normal -0.965925826289068 0.25881904510252146 0.0
  outer loop
    vertex 2.013104329368605 2.8253176946004266 0.06919700000000031
    vertex 2.0254925744821675 2.9194157583712146 0.5106640000000002
    vertex 2.0254925744821675 2.9194157583712146 0.06919700000000031
  endloop
endfacet
facet normal -0.9659258262890682 -0.2588190451025212 0.0
  outer loop
    vertex 2.013104329368605 3.013513822142003 0.5106640000000002
    vertex 2.0254925744821675 2.9194157583712146 0.06919700000000031
    vertex 2.0254925744821675 2.9194157583712146 0.5106640000000002
  endloop
endfacet
facet normal -1.0 3.207999562432886e-16 0.0
  outer loop
    vertex 2.0254925744821675 2.9194157583712146 0.06919700000000031
    vertex 2.013104329368605 3.013513822142003 0.5106640000000002
    vertex 2.013104329368605 3.013513822142003 0.06919700000000031
  endloop
endfacet
facet normal -0.8660254037844386 -0.5000000000000003 0.0
  outer loop
    vertex 1.9767838324598643 3.101199258371215 0.5106640000000002
    vertex 2.013104329368605 3.013513822142003 0.06919700000000031
    vertex 2.013104329368605 3.013513822142003 0.5106640000000002
  endloop
endfacet
facet normal -0.9659258262890682 -0.2588190451025212 0.0
  outer loop
    vertex 2.013104329368605 3.013513822142003 0.06919700000000031
    vertex 1.9767838324598643 3.101199258371215 0.5106640000000002
    vertex 1.9767838324598643 3.101199258371215 0.06919700000000031
  endloop
endfacet
facet normal -0.7071067811865477 -0.7071067811865475 0.0
  outer loop
    vertex 1.9190062655978168 3.1764964494868644 0.5106640000000002
    vertex 1.9767838324598643 3.101199258371215 0.06919700000000031
    vertex 1.9767838324598643 3.101199258371215 0.5106640000000002
  endloop
endfacet
facet normal -0.8660254037844386 -0.5000000000000003 0.0
  outer loop
    vertex 1.9767838324598643 3.101199258371215 0.06919700000000031
    vertex 1.9190062655978168 3.1764964494868644 0.5106640000000002
    vertex 1.9190062655978168 3.1764964494868644 0.06919700000000031
  endloop
endfacet
facet normal -0.7071067811865477 -0.7071067811865475 0.0
  outer loop
    vertex 1.9190062655978168 3.1764964494868644 0.5106640000000002
    vertex 1.8437090744821671 3.234274016348912 0.06919700000000031
    vertex 1.9190062655978168 3.1764964494868644 0.06919700000000031
  endloop
endfacet
facet normal -0.49999999999999856 -0.8660254037844395 0.0
  outer loop
    vertex 1.8437090744821671 3.234274016348912 0.06919700000000031
    vertex 1.9190062655978168 3.1764964494868644 0.5106640000000002
    vertex 1.8437090744821671 3.234274016348912 0.5106640000000002
  endloop
endfacet
facet normal -0.49999999999999856 -0.8660254037844395 0.0
  outer loop
    vertex 1.8437090744821671 3.234274016348912 0.5106640000000002
    vertex 1.7560236382529553 3.2705945132576524 0.06919700000000031
    vertex 1.8437090744821671 3.234274016348912 0.06919700000000031
  endloop
endfacet
facet normal -0.25881904510251935 -0.9659258262890685 0.0
  outer loop
    vertex 1.7560236382529553 3.2705945132576524 0.06919700000000031
    vertex 1.8437090744821671 3.234274016348912 0.5106640000000002
    vertex 1.7560236382529553 3.2705945132576524 0.5106640000000002
  endloop
endfacet
facet normal -0.25881904510251935 -0.9659258262890685 0.0
  outer loop
    vertex 1.7560236382529553 3.2705945132576524 0.5106640000000002
    vertex 1.6619255744821673 3.282982758371215 0.06919700000000031
    vertex 1.7560236382529553 3.2705945132576524 0.06919700000000031
  endloop
endfacet
facet normal -3.207999562432886e-16 -1.0 0.0
  outer loop
    vertex 1.6619255744821673 3.282982758371215 0.06919700000000031
    vertex 1.7560236382529553 3.2705945132576524 0.5106640000000002
    vertex 1.6619255744821673 3.282982758371215 0.5106640000000002
  endloop
endfacet
facet normal -3.207999562432886e-16 -1.0 0.0
  outer loop
    vertex 1.6619255744821673 3.282982758371215 0.5106640000000002
    vertex 1.5678275107113788 3.2705945132576524 0.06919700000000031
    vertex 1.6619255744821673 3.282982758371215 0.06919700000000031
  endloop
endfacet
facet normal 0.2588190451025212 -0.9659258262890682 0.0
  outer loop
    vertex 1.5678275107113788 3.2705945132576524 0.06919700000000031
    vertex 1.6619255744821673 3.282982758371215 0.5106640000000002
    vertex 1.5678275107113788 3.2705945132576524 0.5106640000000002
  endloop
endfacet
facet normal 0.2588190451025212 -0.9659258262890682 0.0
  outer loop
    vertex 1.5678275107113788 3.2705945132576524 0.5106640000000002
    vertex 1.480142074482167 3.2342740163489117 0.06919700000000031
    vertex 1.5678275107113788 3.2705945132576524 0.06919700000000031
  endloop
endfacet
facet normal 0.500000000000001 -0.8660254037844379 0.0
  outer loop
    vertex 1.480142074482167 3.2342740163489117 0.06919700000000031
    vertex 1.5678275107113788 3.2705945132576524 0.5106640000000002
    vertex 1.480142074482167 3.2342740163489117 0.5106640000000002
  endloop
endfacet
facet normal 0.500000000000001 -0.8660254037844379 0.0
  outer loop
    vertex 1.480142074482167 3.2342740163489117 0.5106640000000002
    vertex 1.4048448833665175 3.176496449486864 0.06919700000000031
    vertex 1.480142074482167 3.2342740163489117 0.06919700000000031
  endloop
endfacet
facet normal 0.7071067811865482 -0.707106781186547 0.0
  outer loop
    vertex 1.4048448833665175 3.176496449486864 0.06919700000000031
    vertex 1.480142074482167 3.2342740163489117 0.5106640000000002
    vertex 1.4048448833665175 3.176496449486864 0.5106640000000002
  endloop
endfacet
facet normal 0.7071067811865482 -0.707106781186547 0.0
  outer loop
    vertex 1.4048448833665175 3.176496449486864 0.06919700000000031
    vertex 1.34706731650447 3.1011992583712145 0.5106640000000002
    vertex 1.34706731650447 3.1011992583712145 0.06919700000000031
  endloop
endfacet
facet normal 0.8660254037844389 -0.49999999999999944 0.0
  outer loop
    vertex 1.34706731650447 3.1011992583712145 0.5106640000000002
    vertex 1.4048448833665175 3.176496449486864 0.06919700000000031
    vertex 1.4048448833665175 3.176496449486864 0.5106640000000002
  endloop
endfacet
facet normal 0.8660254037844389 -0.49999999999999944 0.0
  outer loop
    vertex 1.34706731650447 3.1011992583712145 0.06919700000000031
    vertex 1.3107468195957295 3.0135138221420026 0.5106640000000002
    vertex 1.3107468195957295 3.0135138221420026 0.06919700000000031
  endloop
endfacet
facet normal 0.9659258262890683 -0.25881904510252046 0.0
  outer loop
    vertex 1.3107468195957295 3.0135138221420026 0.5106640000000002
    vertex 1.34706731650447 3.1011992583712145 0.06919700000000031
    vertex 1.34706731650447 3.1011992583712145 0.5106640000000002
  endloop
endfacet
facet normal 0.9659258262890683 -0.25881904510252046 0.0
  outer loop
    vertex 1.3107468195957295 3.0135138221420026 0.06919700000000031
    vertex 1.298358574482167 2.9194157583712146 0.5106640000000002
    vertex 1.298358574482167 2.9194157583712146 0.06919700000000031
  endloop
endfacet
facet normal 1.0 -3.207999562432886e-16 0.0
  outer loop
    vertex 1.298358574482167 2.9194157583712146 0.5106640000000002
    vertex 1.3107468195957295 3.0135138221420026 0.06919700000000031
    vertex 1.3107468195957295 3.0135138221420026 0.5106640000000002
  endloop
endfacet
facet normal 1.0 -3.207999562432886e-16 0.0
  outer loop
    vertex 1.298358574482167 2.9194157583712146 0.06919700000000031
    vertex 1.3107468195957295 2.825317694600426 0.5106640000000002
    vertex 1.3107468195957295 2.825317694600426 0.06919700000000031
  endloop
endfacet
facet normal 0.9659258262890682 0.2588190451025212 0.0
  outer loop
    vertex 1.3107468195957295 2.825317694600426 0.5106640000000002
    vertex 1.298358574482167 2.9194157583712146 0.06919700000000031
    vertex 1.298358574482167 2.9194157583712146 0.5106640000000002
  endloop
endfacet
facet normal 0.9659258262890682 0.2588190451025212 0.0
  outer loop
    vertex 1.3107468195957295 2.825317694600426 0.06919700000000031
    vertex 1.3470673165044702 2.7376322583712143 0.5106640000000002
    vertex 1.3470673165044702 2.7376322583712143 0.06919700000000031
  endloop
endfacet
facet normal 0.8660254037844386 0.5000000000000003 0.0
  outer loop
    vertex 1.3470673165044702 2.7376322583712143 0.5106640000000002
    vertex 1.3107468195957295 2.825317694600426 0.06919700000000031
    vertex 1.3107468195957295 2.825317694600426 0.5106640000000002
  endloop
endfacet
facet normal 0.8660254037844386 0.5000000000000003 0.0
  outer loop
    vertex 1.3470673165044702 2.7376322583712143 0.06919700000000031
    vertex 1.4048448833665177 2.662335067255565 0.5106640000000002
    vertex 1.4048448833665177 2.662335067255565 0.06919700000000031
  endloop
endfacet
facet normal 0.7071067811865468 0.7071067811865482 0.0
  outer loop
    vertex 1.4048448833665177 2.662335067255565 0.5106640000000002
    vertex 1.3470673165044702 2.7376322583712143 0.06919700000000031
    vertex 1.3470673165044702 2.7376322583712143 0.5106640000000002
  endloop
endfacet
endsolid TAG-MAYA
